<svg width="652" height="151" viewBox="0 0 652 151" fill="none" xmlns="http://www.w3.org/2000/svg">
<path d="M0.0999908 58.2C0.0999908 47.8 2.34999 38.55 6.84999 30.45C11.35 22.25 17.6 15.9 25.6 11.4C33.7 6.8 42.85 4.5 53.05 4.5C65.55 4.5 76.25 7.8 85.15 14.4C94.05 21 100 30 103 41.4H74.8C72.7 37 69.7 33.65 65.8 31.35C62 29.05 57.65 27.9 52.75 27.9C44.85 27.9 38.45 30.65 33.55 36.15C28.65 41.65 26.2 49 26.2 58.2C26.2 67.4 28.65 74.75 33.55 80.25C38.45 85.75 44.85 88.5 52.75 88.5C57.65 88.5 62 87.35 65.8 85.05C69.7 82.75 72.7 79.4 74.8 75H103C100 86.4 94.05 95.4 85.15 102C76.25 108.5 65.55 111.75 53.05 111.75C42.85 111.75 33.7 109.5 25.6 105C17.6 100.4 11.35 94.05 6.84999 85.95C2.34999 77.85 0.0999908 68.6 0.0999908 58.2Z" fill="black"/>
<path d="M179.199 26.4C188.799 26.4 196.499 29.6 202.299 36C208.099 42.3 210.999 51 210.999 62.1V111H185.499V65.55C185.499 59.95 184.049 55.6 181.149 52.5C178.249 49.4 174.349 47.85 169.449 47.85C164.549 47.85 160.649 49.4 157.749 52.5C154.849 55.6 153.399 59.95 153.399 65.55V111H127.749V0H153.399V38.55C155.999 34.85 159.549 31.9 164.049 29.7C168.549 27.5 173.599 26.4 179.199 26.4Z" fill="black"/>
<path d="M236.5 69C236.5 60.4 238.1 52.85 241.3 46.35C244.6 39.85 249.05 34.85 254.65 31.35C260.25 27.85 266.5 26.1 273.4 26.1C279.3 26.1 284.45 27.3 288.85 29.7C293.35 32.1 296.8 35.25 299.2 39.15V27.3H324.85V111H299.2V99.15C296.7 103.05 293.2 106.2 288.7 108.6C284.3 111 279.15 112.2 273.25 112.2C266.45 112.2 260.25 110.45 254.65 106.95C249.05 103.35 244.6 98.3 241.3 91.8C238.1 85.2 236.5 77.6 236.5 69Z" fill="black"/>
<path d="M376.25 41.25C379.25 36.65 383 33.05 387.5 30.45C392 27.75 397 26.4 402.5 26.4V53.55H395.45C389.05 53.55 384.25 54.95 381.05 57.75C377.85 60.45 376.25 65.25 376.25 72.15V111H350.6V27.3H376.25V41.25Z" fill="black"/>
<path d="M481.249 89.25V111H468.199C458.899 111 451.649 108.75 446.449 104.25C441.249 99.65 438.649 92.2 438.649 81.9V48.6H428.449V27.3H438.649V6.89997H464.299V27.3H481.099V48.6H464.299V82.2C464.299 84.7 464.899 86.5 466.099 87.6C467.299 88.7 469.299 89.25 472.099 89.25H481.249Z" fill="black"/>
<path d="M531.686 -3.05176e-05V111H506.036V-3.05176e-05H531.686Z" fill="black"/>
<path d="M651.95 27.3L599.45 150.75H571.85L591.05 108.15L557 27.3H585.65L605 79.65L624.2 27.3H651.95Z" fill="black"/>
<path d="M276.5 30C276.5 51.8152 294.185 69.5 316 69.5C294.185 69.5 276.5 87.1848 276.5 109C276.5 87.1848 258.815 69.5 237 69.5C258.815 69.5 276.5 51.8152 276.5 30Z" fill="#B9FF46"/>
</svg>
